{
	"asset":{
		"generator":"Khronos glTF Blender I/O v4.4.56",
		"version":"2.0"
	},
	"scene":0,
	"scenes":[
		{
			"name":"Scene",
			"nodes":[
				3,
				7,
				8
			]
		}
	],
	"nodes":[
		{
			"mesh":0,
			"name":"BLack2_1"
		},
		{
			"mesh":1,
			"name":"Black2_2",
			"rotation":[
				0,
				0.8544000387191772,
				0,
				0.5196158289909363
			]
		},
		{
			"mesh":2,
			"name":"White2_1",
			"rotation":[
				0,
				-0.8836255669593811,
				0,
				0.46819430589675903
			]
		},
		{
			"children":[
				0,
				1,
				2
			],
			"name":"Black2",
			"rotation":[
				0,
				0,
				-0.4069315195083618,
				0.9134587645530701
			],
			"scale":[
				0.6799854040145874,
				0.6799852848052979,
				0.6799854040145874
			]
		},
		{
			"mesh":3,
			"name":"Black1_1"
		},
		{
			"mesh":4,
			"name":"White1_1",
			"rotation":[
				0,
				-0.8836255669593811,
				0,
				0.46819424629211426
			]
		},
		{
			"mesh":5,
			"name":"White1_2",
			"rotation":[
				0,
				0.8544000387191772,
				0,
				0.5196157693862915
			]
		},
		{
			"children":[
				4,
				5,
				6
			],
			"name":"Black1",
			"rotation":[
				0.8583703637123108,
				-0.3823905289173126,
				-0.13917875289916992,
				0.3124212622642517
			],
			"scale":[
				0.667169451713562,
				0.6671695113182068,
				0.6671695113182068
			]
		},
		{
			"mesh":6,
			"name":"Cube",
			"rotation":[
				0.504694938659668,
				0.1352325975894928,
				0.22067950665950775,
				0.8235872387886047
			],
			"scale":[
				0.616014838218689,
				0.6160147190093994,
				0.6160147190093994
			]
		}
	],
	"animations":[
		{
			"channels":[
				{
					"sampler":0,
					"target":{
						"node":3,
						"path":"rotation"
					}
				}
			],
			"name":"\u30d9\u30b8\u30a8\u5186\u30a2\u30af\u30b7\u30e7\u30f3",
			"samplers":[
				{
					"input":23,
					"interpolation":"LINEAR",
					"output":24
				}
			]
		},
		{
			"channels":[
				{
					"sampler":0,
					"target":{
						"node":7,
						"path":"rotation"
					}
				}
			],
			"name":"\u30d9\u30b8\u30a8\u5186\u30a2\u30af\u30b7\u30e7\u30f3.001",
			"samplers":[
				{
					"input":23,
					"interpolation":"LINEAR",
					"output":25
				}
			]
		},
		{
			"channels":[
				{
					"sampler":0,
					"target":{
						"node":8,
						"path":"rotation"
					}
				}
			],
			"name":"\u7acb\u65b9\u4f53.001\u30a2\u30af\u30b7\u30e7\u30f3",
			"samplers":[
				{
					"input":23,
					"interpolation":"LINEAR",
					"output":26
				}
			]
		}
	],
	"materials":[
		{
			"doubleSided":true,
			"name":"Material",
			"pbrMetallicRoughness":{
				"baseColorTexture":{
					"index":0
				},
				"metallicFactor":0,
				"roughnessFactor":0.5
			}
		}
	],
	"meshes":[
		{
			"name":"\u7403",
			"primitives":[
				{
					"attributes":{
						"POSITION":0,
						"NORMAL":1,
						"TEXCOORD_0":2
					},
					"indices":3,
					"material":0
				}
			]
		},
		{
			"name":"\u7403.007",
			"primitives":[
				{
					"attributes":{
						"POSITION":4,
						"NORMAL":5,
						"TEXCOORD_0":6
					},
					"indices":3,
					"material":0
				}
			]
		},
		{
			"name":"\u7403.006",
			"primitives":[
				{
					"attributes":{
						"POSITION":7,
						"NORMAL":8,
						"TEXCOORD_0":9
					},
					"indices":3,
					"material":0
				}
			]
		},
		{
			"name":"\u7403.008",
			"primitives":[
				{
					"attributes":{
						"POSITION":10,
						"NORMAL":11,
						"TEXCOORD_0":12
					},
					"indices":3,
					"material":0
				}
			]
		},
		{
			"name":"\u7403.009",
			"primitives":[
				{
					"attributes":{
						"POSITION":13,
						"NORMAL":14,
						"TEXCOORD_0":15
					},
					"indices":3,
					"material":0
				}
			]
		},
		{
			"name":"\u7403.010",
			"primitives":[
				{
					"attributes":{
						"POSITION":16,
						"NORMAL":17,
						"TEXCOORD_0":18
					},
					"indices":3,
					"material":0
				}
			]
		},
		{
			"name":"\u7acb\u65b9\u4f53.001",
			"primitives":[
				{
					"attributes":{
						"POSITION":19,
						"NORMAL":20,
						"TEXCOORD_0":21
					},
					"indices":22,
					"material":0
				}
			]
		}
	],
	"textures":[
		{
			"sampler":0,
			"source":0
		}
	],
	"images":[
		{
			"mimeType":"image/png",
			"name":"Normal",
			"uri":"Normal.png"
		}
	],
	"accessors":[
		{
			"bufferView":0,
			"componentType":5126,
			"count":480,
			"max":[
				0.20000000298023224,
				0.1983850598335266,
				1.206228256225586
			],
			"min":[
				-0.19999998807907104,
				-0.20161491632461548,
				0.8062283396720886
			],
			"type":"VEC3"
		},
		{
			"bufferView":1,
			"componentType":5126,
			"count":480,
			"type":"VEC3"
		},
		{
			"bufferView":2,
			"componentType":5126,
			"count":480,
			"type":"VEC2"
		},
		{
			"bufferView":3,
			"componentType":5123,
			"count":672,
			"type":"SCALAR"
		},
		{
			"bufferView":4,
			"componentType":5126,
			"count":480,
			"max":[
				0.20000000298023224,
				0.1983850598335266,
				1.206228256225586
			],
			"min":[
				-0.19999998807907104,
				-0.20161491632461548,
				0.8062283396720886
			],
			"type":"VEC3"
		},
		{
			"bufferView":5,
			"componentType":5126,
			"count":480,
			"type":"VEC3"
		},
		{
			"bufferView":6,
			"componentType":5126,
			"count":480,
			"type":"VEC2"
		},
		{
			"bufferView":7,
			"componentType":5126,
			"count":480,
			"max":[
				0.20000000298023224,
				0.1983850598335266,
				1.206228256225586
			],
			"min":[
				-0.19999998807907104,
				-0.20161491632461548,
				0.8062283396720886
			],
			"type":"VEC3"
		},
		{
			"bufferView":8,
			"componentType":5126,
			"count":480,
			"type":"VEC3"
		},
		{
			"bufferView":9,
			"componentType":5126,
			"count":480,
			"type":"VEC2"
		},
		{
			"bufferView":10,
			"componentType":5126,
			"count":480,
			"max":[
				0.20000000298023224,
				0.1983850598335266,
				1.206228256225586
			],
			"min":[
				-0.19999998807907104,
				-0.20161491632461548,
				0.8062283396720886
			],
			"type":"VEC3"
		},
		{
			"bufferView":11,
			"componentType":5126,
			"count":480,
			"type":"VEC3"
		},
		{
			"bufferView":12,
			"componentType":5126,
			"count":480,
			"type":"VEC2"
		},
		{
			"bufferView":13,
			"componentType":5126,
			"count":480,
			"max":[
				0.20000000298023224,
				0.1983850598335266,
				1.206228256225586
			],
			"min":[
				-0.19999998807907104,
				-0.20161491632461548,
				0.8062283396720886
			],
			"type":"VEC3"
		},
		{
			"bufferView":14,
			"componentType":5126,
			"count":480,
			"type":"VEC3"
		},
		{
			"bufferView":15,
			"componentType":5126,
			"count":480,
			"type":"VEC2"
		},
		{
			"bufferView":16,
			"componentType":5126,
			"count":480,
			"max":[
				0.20000000298023224,
				0.1983850598335266,
				1.206228256225586
			],
			"min":[
				-0.19999998807907104,
				-0.20161491632461548,
				0.8062283396720886
			],
			"type":"VEC3"
		},
		{
			"bufferView":17,
			"componentType":5126,
			"count":480,
			"type":"VEC3"
		},
		{
			"bufferView":18,
			"componentType":5126,
			"count":480,
			"type":"VEC2"
		},
		{
			"bufferView":19,
			"componentType":5126,
			"count":24,
			"max":[
				0.5,
				0.5,
				0.5
			],
			"min":[
				-0.5,
				-0.5,
				-0.5
			],
			"type":"VEC3"
		},
		{
			"bufferView":20,
			"componentType":5126,
			"count":24,
			"type":"VEC3"
		},
		{
			"bufferView":21,
			"componentType":5126,
			"count":24,
			"type":"VEC2"
		},
		{
			"bufferView":22,
			"componentType":5123,
			"count":36,
			"type":"SCALAR"
		},
		{
			"bufferView":23,
			"componentType":5126,
			"count":40,
			"max":[
				1.6666666666666667
			],
			"min":[
				0.041666666666666664
			],
			"type":"SCALAR"
		},
		{
			"bufferView":24,
			"componentType":5126,
			"count":40,
			"type":"VEC4"
		},
		{
			"bufferView":25,
			"componentType":5126,
			"count":40,
			"type":"VEC4"
		},
		{
			"bufferView":26,
			"componentType":5126,
			"count":40,
			"type":"VEC4"
		}
	],
	"bufferViews":[
		{
			"buffer":0,
			"byteLength":5760,
			"byteOffset":0,
			"target":34962
		},
		{
			"buffer":0,
			"byteLength":5760,
			"byteOffset":5760,
			"target":34962
		},
		{
			"buffer":0,
			"byteLength":3840,
			"byteOffset":11520,
			"target":34962
		},
		{
			"buffer":0,
			"byteLength":1344,
			"byteOffset":15360,
			"target":34963
		},
		{
			"buffer":0,
			"byteLength":5760,
			"byteOffset":16704,
			"target":34962
		},
		{
			"buffer":0,
			"byteLength":5760,
			"byteOffset":22464,
			"target":34962
		},
		{
			"buffer":0,
			"byteLength":3840,
			"byteOffset":28224,
			"target":34962
		},
		{
			"buffer":0,
			"byteLength":5760,
			"byteOffset":32064,
			"target":34962
		},
		{
			"buffer":0,
			"byteLength":5760,
			"byteOffset":37824,
			"target":34962
		},
		{
			"buffer":0,
			"byteLength":3840,
			"byteOffset":43584,
			"target":34962
		},
		{
			"buffer":0,
			"byteLength":5760,
			"byteOffset":47424,
			"target":34962
		},
		{
			"buffer":0,
			"byteLength":5760,
			"byteOffset":53184,
			"target":34962
		},
		{
			"buffer":0,
			"byteLength":3840,
			"byteOffset":58944,
			"target":34962
		},
		{
			"buffer":0,
			"byteLength":5760,
			"byteOffset":62784,
			"target":34962
		},
		{
			"buffer":0,
			"byteLength":5760,
			"byteOffset":68544,
			"target":34962
		},
		{
			"buffer":0,
			"byteLength":3840,
			"byteOffset":74304,
			"target":34962
		},
		{
			"buffer":0,
			"byteLength":5760,
			"byteOffset":78144,
			"target":34962
		},
		{
			"buffer":0,
			"byteLength":5760,
			"byteOffset":83904,
			"target":34962
		},
		{
			"buffer":0,
			"byteLength":3840,
			"byteOffset":89664,
			"target":34962
		},
		{
			"buffer":0,
			"byteLength":288,
			"byteOffset":93504,
			"target":34962
		},
		{
			"buffer":0,
			"byteLength":288,
			"byteOffset":93792,
			"target":34962
		},
		{
			"buffer":0,
			"byteLength":192,
			"byteOffset":94080,
			"target":34962
		},
		{
			"buffer":0,
			"byteLength":72,
			"byteOffset":94272,
			"target":34963
		},
		{
			"buffer":0,
			"byteLength":160,
			"byteOffset":94344
		},
		{
			"buffer":0,
			"byteLength":640,
			"byteOffset":94504
		},
		{
			"buffer":0,
			"byteLength":640,
			"byteOffset":95144
		},
		{
			"buffer":0,
			"byteLength":640,
			"byteOffset":95784
		}
	],
	"samplers":[
		{
			"magFilter":9729,
			"minFilter":9987
		}
	],
	"buffers":[
		{
			"byteLength":96424,
			"uri":"Enemy.bin"
		}
	]
}
