{
	"asset":{
		"generator":"Khronos glTF Blender I/O v4.5.48",
		"version":"2.0"
	},
	"scene":0,
	"scenes":[
		{
			"name":"Scene",
			"nodes":[
				3
			]
		}
	],
	"nodes":[
		{
			"name":"\u30dc\u30fc\u30f3.001",
			"rotation":[
				0,
				1.1920927533992653e-07,
				0,
				1
			],
			"scale":[
				1,
				0.9999999403953552,
				1
			],
			"translation":[
				0,
				1,
				0
			]
		},
		{
			"children":[
				0
			],
			"name":"\u30dc\u30fc\u30f3"
		},
		{
			"mesh":0,
			"name":"Cube.001",
			"skin":0
		},
		{
			"children":[
				2,
				1
			],
			"name":"\u30a2\u30fc\u30de\u30c1\u30e5\u30a2",
			"translation":[
				0,
				-1.0836114883422852,
				0
			]
		}
	],
	"animations":[
		{
			"channels":[
				{
					"sampler":0,
					"target":{
						"node":1,
						"path":"translation"
					}
				},
				{
					"sampler":1,
					"target":{
						"node":1,
						"path":"rotation"
					}
				},
				{
					"sampler":2,
					"target":{
						"node":1,
						"path":"scale"
					}
				},
				{
					"sampler":3,
					"target":{
						"node":0,
						"path":"translation"
					}
				},
				{
					"sampler":4,
					"target":{
						"node":0,
						"path":"rotation"
					}
				},
				{
					"sampler":5,
					"target":{
						"node":0,
						"path":"scale"
					}
				}
			],
			"name":"\u30a2\u30fc\u30de\u30c1\u30e5\u30a2\u30a2\u30af\u30b7\u30e7\u30f3",
			"samplers":[
				{
					"input":7,
					"interpolation":"STEP",
					"output":8
				},
				{
					"input":7,
					"interpolation":"STEP",
					"output":9
				},
				{
					"input":7,
					"interpolation":"STEP",
					"output":10
				},
				{
					"input":7,
					"interpolation":"STEP",
					"output":11
				},
				{
					"input":12,
					"interpolation":"LINEAR",
					"output":13
				},
				{
					"input":7,
					"interpolation":"STEP",
					"output":14
				}
			]
		}
	],
	"materials":[
		{
			"doubleSided":true,
			"name":"Material",
			"pbrMetallicRoughness":{
				"baseColorTexture":{
					"index":0
				},
				"metallicFactor":0,
				"roughnessFactor":0.5
			}
		}
	],
	"meshes":[
		{
			"name":"Cube.002",
			"primitives":[
				{
					"attributes":{
						"POSITION":0,
						"NORMAL":1,
						"TEXCOORD_0":2,
						"JOINTS_0":3,
						"WEIGHTS_0":4
					},
					"indices":5,
					"material":0
				}
			]
		}
	],
	"textures":[
		{
			"sampler":0,
			"source":0
		}
	],
	"images":[
		{
			"mimeType":"image/png",
			"name":"uvChecker",
			"uri":"uvChecker.png"
		}
	],
	"skins":[
		{
			"inverseBindMatrices":6,
			"joints":[
				1,
				0
			],
			"name":"\u30a2\u30fc\u30de\u30c1\u30e5\u30a2"
		}
	],
	"accessors":[
		{
			"bufferView":0,
			"componentType":5126,
			"count":48,
			"max":[
				1,
				2.382927894592285,
				1.0073559284210205
			],
			"min":[
				-1,
				-2.382927894592285,
				-1.007357120513916
			],
			"type":"VEC3"
		},
		{
			"bufferView":1,
			"componentType":5126,
			"count":48,
			"type":"VEC3"
		},
		{
			"bufferView":2,
			"componentType":5126,
			"count":48,
			"type":"VEC2"
		},
		{
			"bufferView":3,
			"componentType":5121,
			"count":48,
			"type":"VEC4"
		},
		{
			"bufferView":4,
			"componentType":5126,
			"count":48,
			"type":"VEC4"
		},
		{
			"bufferView":5,
			"componentType":5123,
			"count":72,
			"type":"SCALAR"
		},
		{
			"bufferView":6,
			"componentType":5126,
			"count":2,
			"type":"MAT4"
		},
		{
			"bufferView":7,
			"componentType":5126,
			"count":2,
			"max":[
				1.6666666666666667
			],
			"min":[
				0.041666666666666664
			],
			"type":"SCALAR"
		},
		{
			"bufferView":8,
			"componentType":5126,
			"count":2,
			"type":"VEC3"
		},
		{
			"bufferView":9,
			"componentType":5126,
			"count":2,
			"type":"VEC4"
		},
		{
			"bufferView":10,
			"componentType":5126,
			"count":2,
			"type":"VEC3"
		},
		{
			"bufferView":11,
			"componentType":5126,
			"count":2,
			"type":"VEC3"
		},
		{
			"bufferView":12,
			"componentType":5126,
			"count":40,
			"max":[
				1.6666666666666667
			],
			"min":[
				0.041666666666666664
			],
			"type":"SCALAR"
		},
		{
			"bufferView":13,
			"componentType":5126,
			"count":40,
			"type":"VEC4"
		},
		{
			"bufferView":14,
			"componentType":5126,
			"count":2,
			"type":"VEC3"
		}
	],
	"bufferViews":[
		{
			"buffer":0,
			"byteLength":576,
			"byteOffset":0,
			"target":34962
		},
		{
			"buffer":0,
			"byteLength":576,
			"byteOffset":576,
			"target":34962
		},
		{
			"buffer":0,
			"byteLength":384,
			"byteOffset":1152,
			"target":34962
		},
		{
			"buffer":0,
			"byteLength":192,
			"byteOffset":1536,
			"target":34962
		},
		{
			"buffer":0,
			"byteLength":768,
			"byteOffset":1728,
			"target":34962
		},
		{
			"buffer":0,
			"byteLength":144,
			"byteOffset":2496,
			"target":34963
		},
		{
			"buffer":0,
			"byteLength":128,
			"byteOffset":2640
		},
		{
			"buffer":0,
			"byteLength":8,
			"byteOffset":2768
		},
		{
			"buffer":0,
			"byteLength":24,
			"byteOffset":2776
		},
		{
			"buffer":0,
			"byteLength":32,
			"byteOffset":2800
		},
		{
			"buffer":0,
			"byteLength":24,
			"byteOffset":2832
		},
		{
			"buffer":0,
			"byteLength":24,
			"byteOffset":2856
		},
		{
			"buffer":0,
			"byteLength":160,
			"byteOffset":2880
		},
		{
			"buffer":0,
			"byteLength":640,
			"byteOffset":3040
		},
		{
			"buffer":0,
			"byteLength":24,
			"byteOffset":3680
		}
	],
	"samplers":[
		{
			"magFilter":9729,
			"minFilter":9987
		}
	],
	"buffers":[
		{
			"byteLength":3704,
			"uri":"cube.bin"
		}
	]
}
