{
	"asset":{
		"generator":"Khronos glTF Blender I/O v4.5.48",
		"version":"2.0"
	},
	"scene":0,
	"scenes":[
		{
			"name":"Scene",
			"nodes":[
				3
			]
		}
	],
	"nodes":[
		{
			"mesh":0,
			"name":"\u7acb\u65b9\u4f53",
			"rotation":[
				0.17251133918762207,
				-0.3652752637863159,
				-0.33084917068481445,
				0.8528497219085693
			],
			"translation":[
				-1.0906695127487183,
				2.3961474895477295,
				0
			]
		},
		{
			"name":"\u30dc\u30fc\u30f3",
			"rotation":[
				9.600778838603219e-08,
				-9.551543200814194e-08,
				0.7093484401702881,
				0.7048580050468445
			],
			"scale":[
				0.9999997615814209,
				0.9999997019767761,
				0.9999998807907104
			]
		},
		{
			"children":[
				0
			],
			"mesh":1,
			"name":"Cube",
			"skin":0
		},
		{
			"children":[
				2,
				1
			],
			"name":"\u30a2\u30fc\u30de\u30c1\u30e5\u30a2"
		}
	],
	"materials":[
		{
			"doubleSided":true,
			"name":"Material.001",
			"pbrMetallicRoughness":{
				"baseColorTexture":{
					"index":0
				},
				"metallicFactor":0,
				"roughnessFactor":0.5
			}
		}
	],
	"meshes":[
		{
			"name":"\u7acb\u65b9\u4f53",
			"primitives":[
				{
					"attributes":{
						"POSITION":0,
						"NORMAL":1,
						"TEXCOORD_0":2
					},
					"indices":3,
					"material":0
				}
			]
		},
		{
			"name":"Cube.003",
			"primitives":[
				{
					"attributes":{
						"POSITION":4,
						"NORMAL":5,
						"TEXCOORD_0":6,
						"JOINTS_0":7,
						"WEIGHTS_0":8
					},
					"indices":9,
					"material":0
				}
			]
		}
	],
	"textures":[
		{
			"sampler":0,
			"source":0
		}
	],
	"images":[
		{
			"mimeType":"image/png",
			"name":"uvChecker",
			"uri":"uvChecker.png"
		}
	],
	"skins":[
		{
			"inverseBindMatrices":10,
			"joints":[
				1
			],
			"name":"\u30a2\u30fc\u30de\u30c1\u30e5\u30a2"
		}
	],
	"accessors":[
		{
			"bufferView":0,
			"componentType":5126,
			"count":24,
			"max":[
				1,
				1,
				1
			],
			"min":[
				-1,
				-1,
				-1
			],
			"type":"VEC3"
		},
		{
			"bufferView":1,
			"componentType":5126,
			"count":24,
			"type":"VEC3"
		},
		{
			"bufferView":2,
			"componentType":5126,
			"count":24,
			"type":"VEC2"
		},
		{
			"bufferView":3,
			"componentType":5123,
			"count":36,
			"type":"SCALAR"
		},
		{
			"bufferView":4,
			"componentType":5126,
			"count":48,
			"max":[
				1.8362809419631958,
				1,
				1.4135416746139526
			],
			"min":[
				-3.1993255615234375,
				-1,
				-1.413541316986084
			],
			"type":"VEC3"
		},
		{
			"bufferView":5,
			"componentType":5126,
			"count":48,
			"type":"VEC3"
		},
		{
			"bufferView":6,
			"componentType":5126,
			"count":48,
			"type":"VEC2"
		},
		{
			"bufferView":7,
			"componentType":5121,
			"count":48,
			"type":"VEC4"
		},
		{
			"bufferView":8,
			"componentType":5126,
			"count":48,
			"type":"VEC4"
		},
		{
			"bufferView":9,
			"componentType":5123,
			"count":72,
			"type":"SCALAR"
		},
		{
			"bufferView":10,
			"componentType":5126,
			"count":1,
			"type":"MAT4"
		}
	],
	"bufferViews":[
		{
			"buffer":0,
			"byteLength":288,
			"byteOffset":0,
			"target":34962
		},
		{
			"buffer":0,
			"byteLength":288,
			"byteOffset":288,
			"target":34962
		},
		{
			"buffer":0,
			"byteLength":192,
			"byteOffset":576,
			"target":34962
		},
		{
			"buffer":0,
			"byteLength":72,
			"byteOffset":768,
			"target":34963
		},
		{
			"buffer":0,
			"byteLength":576,
			"byteOffset":840,
			"target":34962
		},
		{
			"buffer":0,
			"byteLength":576,
			"byteOffset":1416,
			"target":34962
		},
		{
			"buffer":0,
			"byteLength":384,
			"byteOffset":1992,
			"target":34962
		},
		{
			"buffer":0,
			"byteLength":192,
			"byteOffset":2376,
			"target":34962
		},
		{
			"buffer":0,
			"byteLength":768,
			"byteOffset":2568,
			"target":34962
		},
		{
			"buffer":0,
			"byteLength":144,
			"byteOffset":3336,
			"target":34963
		},
		{
			"buffer":0,
			"byteLength":64,
			"byteOffset":3480
		}
	],
	"samplers":[
		{
			"magFilter":9729,
			"minFilter":9987
		}
	],
	"buffers":[
		{
			"byteLength":3544,
			"uri":"cube.bin"
		}
	]
}
