# Blender 4.4.1
# www.blender.org
mtllib hook.mtl
o hook
v 0.000000 0.255077 0.563267
v 0.000000 0.834967 0.000000
v -0.563267 0.255077 0.000000
v 0.000000 0.255077 -0.563267
v 0.563267 0.255077 0.000000
v 0.000000 -0.834967 0.000000
vn -0.5829 0.5662 0.5829
vn -0.5829 0.5662 -0.5829
vn 0.7173 -0.6968 -0.0000
vn -0.0000 1.0000 -0.0000
vn -1.0000 -0.0000 -0.0000
vn 0.5829 0.5662 0.5829
vn 0.5829 0.5662 -0.5829
vn -0.7173 -0.6968 -0.0000
vn -0.6642 -0.3432 0.6642
vn -0.6642 -0.3432 -0.6642
vn 0.8884 0.4591 -0.0000
vn 0.6642 -0.3432 0.6642
vn 0.6642 -0.3432 -0.6642
vn -0.8884 0.4591 -0.0000
vt 0.011506 0.204998
vt 0.201811 0.011506
vt 0.201811 0.234870
vt 0.392115 0.204998
vt 0.444528 0.823581
vt 0.438140 0.591726
vt 0.664242 0.661326
vt 0.664242 0.897898
vt 0.859642 0.872925
vt 0.707271 0.872925
vt 0.707271 0.603794
vt 0.941473 0.284638
vt 0.707271 0.152043
vt 0.941473 0.011506
vt 0.941473 0.580781
vt 0.707271 0.448186
vt 0.941473 0.307650
vt 0.201811 0.175127
vt 0.859642 0.603794
vt 0.201811 0.568714
vt 0.415128 0.011506
vt 0.684259 0.011506
vt 0.549693 0.391264
vt 0.415128 0.163877
vt 0.201811 0.724321
vt 0.011506 0.988494
vt 0.011506 0.591726
vt 0.415128 0.591726
vt 0.415128 0.988494
vt 0.224823 0.724321
s 0
usemtl hook
f 1/1/1 2/2/1 3/3/1
f 3/3/2 2/2/2 4/4/2
f 3/5/3 4/6/3 2/7/3 1/8/3
f 4/9/4 3/10/4 1/11/4
f 4/4/5 1/1/5 2/2/5
f 1/12/6 5/13/6 2/14/6
f 5/15/7 4/16/7 2/17/7
f 5/18/8 1/1/8 2/2/8 4/4/8
f 4/9/4 1/11/4 5/19/4
f 1/1/9 3/3/9 6/20/9
f 3/3/10 4/4/10 6/20/10
f 3/21/11 1/22/11 6/23/11 4/24/11
f 4/4/5 6/20/5 1/1/5
f 1/25/12 6/26/12 5/27/12
f 5/28/13 6/29/13 4/30/13
f 5/18/14 4/4/14 6/20/14 1/1/14
