# Blender 4.4.3
# www.blender.org
mtllib bullet.mtl
o çƒ
v 0.000000 0.500000 -0.866025
v 0.000000 -0.500000 -0.866025
v 0.250000 0.866025 -0.433013
v 0.433013 0.500000 -0.750000
v 0.500000 0.000000 -0.866025
v 0.433013 -0.500000 -0.750000
v 0.250000 -0.866025 -0.433013
v 0.433013 0.866025 -0.250000
v 0.750000 0.500000 -0.433013
v 0.866025 0.000000 -0.500000
v 0.750000 -0.500000 -0.433013
v 0.433013 -0.866025 -0.250000
v 0.500000 0.866025 0.000000
v 0.866025 0.500000 0.000000
v 1.000000 0.000000 0.000000
v 0.866025 -0.500000 0.000000
v 0.500000 -0.866025 0.000000
v 0.433013 0.866025 0.250000
v 0.750000 0.500000 0.433013
v 0.866025 0.000000 0.500000
v 0.750000 -0.500000 0.433013
v 0.433013 -0.866025 0.250000
v 0.250000 0.866025 0.433013
v 0.433013 0.500000 0.750000
v 0.500000 0.000000 0.866025
v 0.433013 -0.500000 0.750000
v 0.250000 -0.866025 0.433013
v 0.000000 0.866025 0.500000
v -0.000000 0.500000 0.866025
v 0.000000 0.000000 1.000000
v -0.000000 -0.500000 0.866025
v 0.000000 -0.866025 0.500000
v 0.000000 1.000000 0.000000
v -0.250000 0.866025 0.433013
v -0.433013 0.500000 0.750000
v -0.500000 0.000000 0.866025
v -0.433013 -0.500000 0.750000
v -0.250000 -0.866025 0.433013
v 0.000000 -1.000000 0.000000
v -0.433013 0.866025 0.250000
v -0.750000 0.500000 0.433013
v -0.866025 0.000000 0.500000
v -0.750000 -0.500000 0.433013
v -0.433013 -0.866025 0.250000
v -0.500000 0.866025 0.000000
v -0.866025 0.500000 -0.000000
v -1.000000 0.000000 0.000000
v -0.866025 -0.500000 -0.000000
v -0.500000 -0.866025 0.000000
v -0.433013 0.866025 -0.250000
v -0.750000 0.500000 -0.433013
v -0.866025 0.000000 -0.500000
v -0.750000 -0.500000 -0.433013
v -0.433013 -0.866025 -0.250000
v -0.250000 0.866025 -0.433013
v -0.433013 0.500000 -0.750000
v -0.500000 0.000000 -0.866025
v -0.433013 -0.500000 -0.750000
v -0.250000 -0.866025 -0.433013
v 0.000000 0.866025 -0.500000
v 0.000000 0.000000 -1.000000
v 0.000000 -0.866025 -0.500000
vn 0.2506 0.2506 -0.9351
vn 0.0692 0.9636 -0.2582
vn 0.0692 -0.9636 -0.2582
vn 0.2506 -0.2506 -0.9351
vn 0.1862 0.6947 -0.6947
vn 0.1862 -0.6947 -0.6947
vn 0.1890 -0.9636 -0.1890
vn 0.6846 -0.2506 -0.6846
vn 0.5086 0.6947 -0.5086
vn 0.5086 -0.6947 -0.5086
vn 0.6846 0.2506 -0.6846
vn 0.1890 0.9636 -0.1890
vn 0.2582 -0.9636 -0.0692
vn 0.9351 -0.2506 -0.2506
vn 0.6947 0.6947 -0.1862
vn 0.6947 -0.6947 -0.1862
vn 0.9351 0.2506 -0.2506
vn 0.2582 0.9636 -0.0692
vn 0.9351 -0.2506 0.2506
vn 0.6947 0.6947 0.1862
vn 0.6947 -0.6947 0.1862
vn 0.9351 0.2506 0.2506
vn 0.2582 0.9636 0.0692
vn 0.2582 -0.9636 0.0692
vn 0.5086 0.6947 0.5086
vn 0.5086 -0.6947 0.5086
vn 0.6846 0.2506 0.6846
vn 0.1890 0.9636 0.1890
vn 0.1890 -0.9636 0.1890
vn 0.6846 -0.2506 0.6846
vn 0.1862 -0.6947 0.6947
vn 0.2506 0.2506 0.9351
vn 0.0692 0.9636 0.2582
vn 0.0692 -0.9636 0.2582
vn 0.2506 -0.2506 0.9351
vn 0.1862 0.6947 0.6947
vn -0.1862 -0.6947 0.6947
vn -0.2506 0.2506 0.9351
vn -0.0692 0.9636 0.2582
vn -0.0692 -0.9636 0.2582
vn -0.2506 -0.2506 0.9351
vn -0.1862 0.6947 0.6947
vn -0.5086 -0.6947 0.5086
vn -0.6846 0.2506 0.6846
vn -0.1890 0.9636 0.1890
vn -0.1890 -0.9636 0.1890
vn -0.6846 -0.2506 0.6846
vn -0.5086 0.6947 0.5086
vn -0.6947 -0.6947 0.1862
vn -0.9351 0.2506 0.2506
vn -0.2582 0.9636 0.0692
vn -0.2582 -0.9636 0.0692
vn -0.9351 -0.2506 0.2506
vn -0.6947 0.6947 0.1862
vn -0.9351 0.2506 -0.2506
vn -0.2582 0.9636 -0.0692
vn -0.2582 -0.9636 -0.0692
vn -0.9351 -0.2506 -0.2506
vn -0.6947 0.6947 -0.1862
vn -0.6947 -0.6947 -0.1862
vn -0.1890 0.9636 -0.1890
vn -0.1890 -0.9636 -0.1890
vn -0.6846 -0.2506 -0.6846
vn -0.5086 0.6947 -0.5086
vn -0.5086 -0.6947 -0.5086
vn -0.6846 0.2506 -0.6846
vn -0.0692 -0.9636 -0.2582
vn -0.2506 -0.2506 -0.9351
vn -0.1862 0.6947 -0.6947
vn -0.1862 -0.6947 -0.6947
vn -0.2506 0.2506 -0.9351
vn -0.0692 0.9636 -0.2582
vt 0.500000 0.500000
s 0
usemtl Material
f 1/1/1 5/1/1 61/1/1
f 60/1/2 33/1/2 3/1/2
f 39/1/3 62/1/3 7/1/3
f 61/1/4 6/1/4 2/1/4
f 60/1/5 4/1/5 1/1/5
f 2/1/6 7/1/6 62/1/6
f 39/1/7 7/1/7 12/1/7
f 5/1/8 11/1/8 6/1/8
f 3/1/9 9/1/9 4/1/9
f 6/1/10 12/1/10 7/1/10
f 4/1/11 10/1/11 5/1/11
f 3/1/12 33/1/12 8/1/12
f 39/1/13 12/1/13 17/1/13
f 11/1/14 15/1/14 16/1/14
f 8/1/15 14/1/15 9/1/15
f 11/1/16 17/1/16 12/1/16
f 9/1/17 15/1/17 10/1/17
f 8/1/18 33/1/18 13/1/18
f 16/1/19 20/1/19 21/1/19
f 14/1/20 18/1/20 19/1/20
f 16/1/21 22/1/21 17/1/21
f 14/1/22 20/1/22 15/1/22
f 13/1/23 33/1/23 18/1/23
f 39/1/24 17/1/24 22/1/24
f 19/1/25 23/1/25 24/1/25
f 21/1/26 27/1/26 22/1/26
f 19/1/27 25/1/27 20/1/27
f 18/1/28 33/1/28 23/1/28
f 39/1/29 22/1/29 27/1/29
f 21/1/30 25/1/30 26/1/30
f 26/1/31 32/1/31 27/1/31
f 24/1/32 30/1/32 25/1/32
f 23/1/33 33/1/33 28/1/33
f 39/1/34 27/1/34 32/1/34
f 26/1/35 30/1/35 31/1/35
f 24/1/36 28/1/36 29/1/36
f 31/1/37 38/1/37 32/1/37
f 29/1/38 36/1/38 30/1/38
f 28/1/39 33/1/39 34/1/39
f 39/1/40 32/1/40 38/1/40
f 31/1/41 36/1/41 37/1/41
f 29/1/42 34/1/42 35/1/42
f 37/1/43 44/1/43 38/1/43
f 35/1/44 42/1/44 36/1/44
f 34/1/45 33/1/45 40/1/45
f 39/1/46 38/1/46 44/1/46
f 37/1/47 42/1/47 43/1/47
f 35/1/48 40/1/48 41/1/48
f 43/1/49 49/1/49 44/1/49
f 41/1/50 47/1/50 42/1/50
f 40/1/51 33/1/51 45/1/51
f 39/1/52 44/1/52 49/1/52
f 43/1/53 47/1/53 48/1/53
f 41/1/54 45/1/54 46/1/54
f 46/1/55 52/1/55 47/1/55
f 45/1/56 33/1/56 50/1/56
f 39/1/57 49/1/57 54/1/57
f 48/1/58 52/1/58 53/1/58
f 46/1/59 50/1/59 51/1/59
f 48/1/60 54/1/60 49/1/60
f 50/1/61 33/1/61 55/1/61
f 39/1/62 54/1/62 59/1/62
f 53/1/63 57/1/63 58/1/63
f 51/1/64 55/1/64 56/1/64
f 53/1/65 59/1/65 54/1/65
f 51/1/66 57/1/66 52/1/66
f 39/1/67 59/1/67 62/1/67
f 58/1/68 61/1/68 2/1/68
f 56/1/69 60/1/69 1/1/69
f 58/1/70 62/1/70 59/1/70
f 56/1/71 61/1/71 57/1/71
f 55/1/72 33/1/72 60/1/72
f 1/1/1 4/1/1 5/1/1
f 61/1/4 5/1/4 6/1/4
f 60/1/5 3/1/5 4/1/5
f 2/1/6 6/1/6 7/1/6
f 5/1/8 10/1/8 11/1/8
f 3/1/9 8/1/9 9/1/9
f 6/1/10 11/1/10 12/1/10
f 4/1/11 9/1/11 10/1/11
f 11/1/14 10/1/14 15/1/14
f 8/1/15 13/1/15 14/1/15
f 11/1/16 16/1/16 17/1/16
f 9/1/17 14/1/17 15/1/17
f 16/1/19 15/1/19 20/1/19
f 14/1/20 13/1/20 18/1/20
f 16/1/21 21/1/21 22/1/21
f 14/1/22 19/1/22 20/1/22
f 19/1/25 18/1/25 23/1/25
f 21/1/26 26/1/26 27/1/26
f 19/1/27 24/1/27 25/1/27
f 21/1/30 20/1/30 25/1/30
f 26/1/31 31/1/31 32/1/31
f 24/1/32 29/1/32 30/1/32
f 26/1/35 25/1/35 30/1/35
f 24/1/36 23/1/36 28/1/36
f 31/1/37 37/1/37 38/1/37
f 29/1/38 35/1/38 36/1/38
f 31/1/41 30/1/41 36/1/41
f 29/1/42 28/1/42 34/1/42
f 37/1/43 43/1/43 44/1/43
f 35/1/44 41/1/44 42/1/44
f 37/1/47 36/1/47 42/1/47
f 35/1/48 34/1/48 40/1/48
f 43/1/49 48/1/49 49/1/49
f 41/1/50 46/1/50 47/1/50
f 43/1/53 42/1/53 47/1/53
f 41/1/54 40/1/54 45/1/54
f 46/1/55 51/1/55 52/1/55
f 48/1/58 47/1/58 52/1/58
f 46/1/59 45/1/59 50/1/59
f 48/1/60 53/1/60 54/1/60
f 53/1/63 52/1/63 57/1/63
f 51/1/64 50/1/64 55/1/64
f 53/1/65 58/1/65 59/1/65
f 51/1/66 56/1/66 57/1/66
f 58/1/68 57/1/68 61/1/68
f 56/1/69 55/1/69 60/1/69
f 58/1/70 2/1/70 62/1/70
f 56/1/71 1/1/71 61/1/71
